<?xml version="1.0" standalone="no"?>
<!DOCTYPE svg PUBLIC "-//W3C//DTD SVG 20010904//EN"
 "http://www.w3.org/TR/2001/REC-SVG-20010904/DTD/svg10.dtd">
<svg version="1.0" xmlns="http://www.w3.org/2000/svg"
 width="600.000000pt" height="600.000000pt" viewBox="0 0 600.000000 600.000000"
 preserveAspectRatio="xMidYMid meet">

<g transform="translate(0.000000,600.000000) scale(0.100000,-0.100000)"
fill="#000000" stroke="none">
<path d="M2800 5328 c0 -2 -49 -147 -109 -322 l-108 -319 -136 -44 c-77 -25
-193 -74 -269 -112 l-133 -67 -302 150 -303 151 -135 -135 c-74 -74 -135 -140
-135 -147 0 -7 66 -145 147 -307 l147 -294 -51 -99 c-69 -132 -101 -209 -138
-333 l-31 -105 -230 -77 c-126 -42 -270 -91 -321 -108 l-92 -32 2 -197 2 -196
319 -110 319 -110 39 -120 c38 -118 128 -319 168 -375 l21 -29 -153 -305 -153
-306 141 -141 141 -141 304 152 304 152 79 -46 c101 -58 225 -110 340 -142 50
-15 96 -31 102 -38 11 -10 29 -62 171 -483 l55 -163 197 0 197 0 104 318 c57
174 108 322 114 328 6 7 53 23 104 38 121 34 247 86 347 143 l80 46 304 -153
305 -153 138 141 138 142 -150 301 -151 301 70 137 c56 111 112 260 146 386 2
6 147 60 324 119 l321 108 0 198 0 197 -321 109 c-177 60 -323 113 -324 119
-33 137 -142 404 -204 500 -11 18 4 54 137 326 l150 307 -139 138 -139 138
-302 -150 -303 -151 -90 48 c-124 66 -235 112 -349 145 l-97 28 -105 323 -106
323 -199 0 c-109 0 -199 -1 -199 -2z m505 -817 c257 -54 450 -137 649 -279 94
-67 262 -230 332 -322 213 -281 334 -635 334 -985 0 -272 -73 -551 -205 -786
-291 -516 -824 -828 -1416 -829 -324 0 -663 109 -930 300 -336 240 -559 581
-646 987 -25 115 -27 148 -27 328 0 180 2 213 27 328 92 432 339 791 707 1029
191 124 362 190 625 239 137 25 405 21 550 -10z"/>
<path d="M2875 4479 c-560 -44 -1081 -415 -1299 -926 -214 -503 -165 -1047
136 -1500 91 -137 274 -322 406 -412 164 -111 372 -200 577 -246 96 -22 408
-31 516 -16 699 101 1233 631 1338 1328 14 93 14 343 0 436 -98 651 -579 1169
-1214 1306 -81 18 -313 44 -350 39 -5 0 -55 -4 -110 -9z m366 -194 c311 -54
618 -234 814 -478 341 -423 408 -985 175 -1462 -32 -66 -63 -126 -68 -134 -8
-11 -28 1 -99 60 -48 41 -118 99 -156 128 -65 51 -76 71 -38 71 9 0 25 6 35
13 16 11 14 15 -17 52 -67 81 -79 107 -118 257 -37 146 -45 199 -18 124 7 -20
18 -36 24 -36 25 0 86 65 114 122 71 141 14 309 -130 383 -43 23 -146 31 -193
15 -20 -6 -59 -27 -87 -45 l-50 -34 -47 28 c-188 115 -537 117 -740 5 l-65
-35 -26 24 c-42 40 -92 60 -162 65 -208 15 -355 -201 -270 -395 22 -50 98
-133 121 -133 6 0 16 14 21 30 6 17 15 30 20 30 5 0 4 -12 -2 -27 -6 -16 -24
-82 -40 -147 -30 -125 -38 -142 -101 -217 -21 -26 -38 -50 -38 -53 0 -4 16
-14 35 -22 20 -8 33 -19 30 -24 -9 -15 -314 -260 -323 -260 -16 0 -113 198
-147 300 -55 161 -70 253 -70 445 0 123 5 194 18 258 119 592 596 1035 1192
1106 102 12 295 6 406 -14z m-51 -940 c69 -17 150 -51 150 -65 0 -4 -19 -10
-42 -14 -23 -4 -73 -20 -112 -36 l-71 -30 -23 30 c-29 37 -38 38 -57 0 -20
-38 -19 -43 6 -35 17 6 32 -4 72 -47 40 -41 60 -73 85 -138 49 -128 80 -281
62 -309 -4 -8 -24 0 -61 25 -30 20 -80 49 -111 65 l-58 29 0 55 c0 30 5 55 10
55 6 0 10 -4 10 -10 0 -21 19 -8 49 32 33 44 41 97 18 116 -18 15 -125 24
-177 15 -36 -7 -47 -14 -54 -35 -11 -31 3 -69 40 -112 20 -23 28 -26 34 -15
14 22 24 2 24 -48 l1 -46 -60 -35 c-33 -19 -84 -49 -112 -68 -29 -19 -55 -34
-58 -34 -13 0 -3 97 20 186 35 138 88 245 142 290 31 26 49 34 64 29 20 -7 20
-6 5 23 -23 45 -32 46 -65 10 -22 -25 -32 -30 -42 -21 -19 15 -156 63 -180 63
-28 0 -23 17 9 34 119 61 322 78 482 41z m-754 -46 c49 -23 66 -40 56 -56 -6
-9 -24 -4 -66 17 -32 17 -69 30 -82 30 -28 0 -32 16 -6 23 35 9 57 6 98 -14z
m1249 11 c22 -9 22 -9 -50 -30 -22 -7 -54 -21 -72 -32 -34 -20 -55 -9 -32 18
34 41 109 63 154 44z m-962 -151 c45 -11 84 -22 85 -24 9 -8 -33 -64 -55 -74
-63 -29 -133 15 -133 83 0 20 5 36 11 36 6 0 47 -9 92 -21z m672 11 c11 -18
-6 -68 -32 -94 -36 -37 -85 -35 -124 3 -45 45 -38 56 44 79 84 24 103 26 112
12z m-232 -448 c42 -30 77 -61 77 -68 0 -21 -55 -53 -121 -70 -114 -29 -278
-4 -329 51 -13 14 -22 26 -19 28 36 30 127 93 173 121 l58 35 42 -21 c22 -11
76 -45 119 -76z m-953 -700 c18 -15 22 -24 16 -46 -4 -16 -16 -30 -27 -33 -19
-5 -18 -7 7 -40 14 -19 24 -36 21 -39 -10 -10 -53 16 -75 45 -12 17 -30 31
-38 31 -33 0 -6 25 32 30 59 7 53 34 -8 38 l-48 3 0 -74 c0 -72 -1 -74 -22
-70 -22 4 -23 9 -23 89 l0 84 71 0 c55 0 77 -4 94 -18z m230 3 c0 -12 -14 -15
-65 -15 l-65 0 0 -55 0 -55 65 0 c59 0 65 -2 65 -21 0 -15 -4 -19 -16 -15 -9
3 -48 6 -87 6 l-72 0 0 85 0 85 88 0 c71 0 87 -3 87 -15z m193 -5 c33 -26 41
-62 23 -105 -16 -37 -41 -49 -97 -43 -44 4 -44 22 1 26 46 5 60 18 60 58 0 39
-21 54 -74 54 l-36 0 0 -69 c0 -60 -2 -69 -20 -74 -19 -5 -20 0 -20 84 l0 89
69 0 c53 0 74 -4 94 -20z m167 6 c0 -8 8 -32 18 -54 l18 -40 17 42 c9 23 17
47 17 54 0 7 13 12 29 12 25 0 30 -5 35 -33 3 -19 12 -42 20 -52 12 -16 15
-13 31 34 15 41 23 51 42 51 28 0 27 3 4 -46 -11 -23 -26 -59 -33 -82 -10 -33
-18 -42 -35 -42 -13 0 -24 8 -29 22 -3 12 -13 37 -21 56 l-15 35 -19 -42 c-10
-24 -19 -49 -19 -56 0 -7 -11 -15 -25 -17 -16 -3 -25 -1 -25 7 0 7 -13 45 -30
83 -16 39 -30 73 -30 76 0 4 11 6 25 6 15 0 25 -6 25 -14z m320 -75 c0 -86 -1
-88 -22 -84 -22 4 -23 9 -23 89 0 80 1 84 23 84 21 0 22 -3 22 -89z m85 4 c0
-81 -1 -85 -22 -85 -22 0 -23 4 -23 85 0 81 1 85 23 85 21 0 22 -4 22 -85z
m150 0 c0 -78 -2 -85 -20 -85 -28 0 -125 99 -125 127 0 32 9 29 58 -22 24 -25
44 -45 45 -45 1 0 1 25 0 55 -2 50 0 55 20 55 21 0 22 -4 22 -85z m205 70 c0
-10 -11 -15 -35 -15 l-35 0 0 -69 c0 -60 -2 -69 -20 -74 -19 -5 -20 0 -20 69
l0 74 -35 0 c-24 0 -35 5 -35 15 0 12 17 15 90 15 73 0 90 -3 90 -15z m190 0
c0 -12 -14 -15 -65 -15 l-66 0 3 -57 3 -57 68 3 c63 2 67 1 67 -19 0 -16 -4
-20 -16 -16 -9 3 -49 6 -90 6 l-74 0 0 85 0 85 85 0 c69 0 85 -3 85 -15z m201
5 c26 -15 25 -64 -2 -84 l-21 -14 28 -38 c23 -29 25 -36 11 -31 -10 4 -24 7
-30 7 -7 0 -23 16 -36 35 -13 19 -30 35 -37 35 -8 0 -14 7 -14 15 0 11 11 15
41 15 33 0 40 3 37 18 -2 13 -15 18 -51 20 l-49 3 4 -70 c3 -68 2 -71 -19 -71
-22 0 -23 4 -23 85 l0 85 71 0 c39 0 79 -5 90 -10z m-1551 -71 c0 -17 -5 -20
-37 -17 -46 4 -46 21 -1 29 18 4 34 7 36 8 1 0 2 -8 2 -20z m1310 1 c0 -16 -7
-20 -35 -20 -46 0 -48 27 -2 33 17 2 33 5 35 5 1 1 2 -7 2 -18z"/>
<path d="M2997 4093 c-4 -3 -7 -24 -7 -47 0 -31 -3 -37 -12 -28 -17 17 -48 15
-48 -3 0 -8 14 -21 30 -30 37 -19 40 -45 6 -45 -16 0 -27 -7 -31 -20 -3 -11
-13 -20 -21 -20 -15 0 -17 9 -14 48 2 26 -17 55 -31 46 -5 -3 -9 -16 -9 -30 0
-28 -5 -29 -40 -9 -35 20 -50 18 -50 -4 0 -11 13 -28 30 -38 l30 -17 -28 -22
c-25 -21 -25 -23 -8 -30 11 -4 30 0 47 10 35 21 53 12 44 -21 -3 -14 -1 -31 6
-40 23 -26 -11 -35 -49 -12 -19 10 -38 17 -43 14 -16 -10 -10 -32 13 -47 21
-14 21 -14 -10 -27 -19 -8 -32 -21 -32 -32 0 -27 16 -32 49 -14 39 20 41 19
41 -10 0 -16 6 -25 15 -25 11 0 15 11 15 39 0 48 23 72 40 42 6 -13 21 -21 35
-21 35 0 32 -27 -5 -48 -45 -25 -35 -66 10 -42 18 10 20 8 20 -29 0 -25 5 -41
15 -44 20 -8 30 11 26 52 -2 29 0 33 16 26 55 -22 70 6 18 36 -39 24 -41 42
-5 47 13 2 29 11 36 20 20 27 44 7 44 -38 0 -29 4 -40 15 -40 9 0 15 9 15 25
0 29 2 30 41 10 52 -27 69 8 22 44 -26 19 -26 22 -10 32 18 11 23 34 8 44 -5
3 -24 -4 -43 -14 -39 -24 -72 -14 -48 14 10 12 10 21 2 41 -15 32 8 43 43 20
13 -9 31 -16 40 -16 22 0 18 25 -7 42 l-23 15 33 17 c20 10 32 24 32 36 0 24
-26 26 -54 5 -28 -21 -36 -19 -36 10 0 45 -29 30 -32 -17 -3 -48 -31 -66 -43
-29 -4 15 -15 21 -36 21 -40 0 -36 16 11 40 43 22 48 31 27 48 -10 9 -19 8
-35 -3 -23 -17 -34 -8 -32 28 1 12 2 28 1 35 -1 13 -23 17 -34 5z"/>
</g>
</svg>
